<svg width="512" height="512" viewBox="0 0 40 40" fill="none" xmlns="http://www.w3.org/2000/svg">
  <!--
    Master source for all BillSnap app icons (32x32.png, 128x128.png,
    128x128@2x.png, icon.ico, icon.icns) — same mark as
    frontend/src/components/shared/Logo.tsx, kept in sync by hand since
    one is React/JSX and the other is a static asset PyInstaller/Tauri's
    icon tooling needs as real files on disk.

    To regenerate the icon set after editing this file, see
    scripts/generate-icons.md for the exact commands (rsvg-convert for
    the PNGs, Pillow for icon.ico, icnsutil for icon.icns).
  -->
  <defs>
    <linearGradient id="billsnap-grad" x1="4" y1="2" x2="36" y2="38" gradientUnits="userSpaceOnUse">
      <stop offset="0" stop-color="#378ADD" />
      <stop offset="1" stop-color="#185FA5" />
    </linearGradient>
  </defs>
  <rect x="2" y="2" width="36" height="36" rx="10" fill="url(#billsnap-grad)" />
  <path
    d="M12 9.5C12 8.67 12.67 8 13.5 8h13c.83 0 1.5.67 1.5 1.5v19.7l-2.2-1.5-2.2 1.5-2.2-1.5-2.2 1.5-2.2-1.5-2.2 1.5-2.2-1.5-2.2 1.5V9.5Z"
    fill="white"
    fill-opacity="0.95"
  />
  <rect x="15" y="12.5" width="10" height="1.6" rx="0.8" fill="#185FA5" fill-opacity="0.35" />
  <rect x="15" y="16" width="7" height="1.6" rx="0.8" fill="#185FA5" fill-opacity="0.35" />
  <path
    d="M22.5 13.5 16 22.5h4.2l-1.3 6.5 7.6-9.8h-4.4l1.4-5.7Z"
    fill="#FAC775"
    stroke="#854F0B"
    stroke-width="0.6"
    stroke-linejoin="round"
  />
</svg>
